# xmcd
#
# Track frame offsets:
#	150
#	11695
#	25452
#	36037
#	46610
#	59735
#	76875
#	90354
#	103652
#	114275
#	128282
#	141835
#	155705
#	167827
#
# Disc length: 2390 seconds
#
# Revision: 1
# Processed by: cddbd v1.4b41PL2 Copyright (c) Steve Scherf et al.
# Submitted via: audiograbber 1.80
#
DISCID=a809540e
DTITLE=Etta James - The 20th Century Music Collection
DYEAR=1900
DGENRE=
TTITLE0=I´d Rather Go Blind
TTITLE1=I Just Want To Make Love To You
TTITLE2=In The Basement
TTITLE3=Tell Mama
TTITLE4=Pushover
TTITLE5=Lovin´ Arms
TTITLE6=At Last
TTITLE7=All I Could Do Was Cry
TTITLE8=Don´t Cry Baby
TTITLE9=Stormy Weather
TTITLE10=Plum Nuts
TTITLE11=I Prefer You
TTITLE12=The Same Rope
TTITLE13=Anything To Say You´re Mine
EXTD=
EXTT0=
EXTT1=
EXTT2=
EXTT3=
EXTT4=
EXTT5=
EXTT6=
EXTT7=
EXTT8=
EXTT9=
EXTT10=
EXTT11=
EXTT12=
EXTT13=
PLAYORDER=
